<?xml version="1.0" standalone="yes"?>

<svg version="1.1" viewBox="0.0 0.0 507.20997375328085 342.84514435695536" fill="none" stroke="none" stroke-linecap="square" stroke-miterlimit="10" xmlns="http://www.w3.org/2000/svg" xmlns:xlink="http://www.w3.org/1999/xlink"><clipPath id="p.0"><path d="m0 0l507.20996 0l0 342.84515l-507.20996 0l0 -342.84515z" clip-rule="nonzero"></path></clipPath><g clip-path="url(#p.0)"><path fill="#000000" fill-opacity="0.0" d="m0 0l507.20996 0l0 342.84515l-507.20996 0z" fill-rule="nonzero"></path><path fill="#000000" fill-opacity="0.0" d="m114.02629 132.84367c31.655731 -18.992569 138.03719 -102.01007 189.93437 -113.95538c51.897217 -11.945318 92.66098 10.496502 121.44882 42.283466c28.787842 31.786964 42.731842 123.69859 51.27823 148.43832" fill-rule="nonzero"></path><path stroke="#cccccc" stroke-width="4.0" stroke-linejoin="round" stroke-linecap="butt" stroke-dasharray="16.0,12.0" d="m114.02629 132.84367c31.655731 -18.992569 138.03717 -102.01007 189.93437 -113.95538c51.897186 -11.945318 92.66098 10.496502 121.44882 42.283466c14.393921 15.893478 25.076904 46.81813 33.229675 76.86188c4.0763855 15.021866 7.5202026 29.823517 10.479126 42.415924c0.73968506 3.148117 1.4491272 6.1581116 2.1305237 8.998993c0.34072876 1.4204407 0.67440796 2.798584 1.0014038 4.1305695c0.16351318 0.6659851 0.32531738 1.3204346 0.48550415 1.9628296l0.22073364 0.8773651" fill-rule="evenodd"></path><path fill="#cccccc" stroke="#cccccc" stroke-width="4.0" stroke-linecap="butt" d="m472.95642 196.41931l-5.552887 -3.1040955l7.692505 10.66803l0.96447754 -13.116837z" fill-rule="evenodd"></path><path fill="#cfe2f3" d="m142.9924 115.41275l-58.22075 -2.5289688l-1.1811066 27.637794l58.22075 2.5289764z" fill-rule="nonzero"></path><path fill="#a5b4c2" d="m84.77165 112.88378l-8.818619 -9.612762l-1.1811066 27.637794l8.818619 9.612762z" fill-rule="nonzero"></path><path fill="#d8e7f5" d="m142.9924 115.41275l-8.818619 -9.612762l-58.22075 -2.5289688l8.818619 9.612762z" fill-rule="nonzero"></path><path fill="#000000" fill-opacity="0.0" d="m142.9924 115.41275l-8.818619 -9.612762l-58.22075 -2.5289688l-1.1811066 27.637794l8.818619 9.612762l58.22075 2.5289764zm0 0l-58.22075 -2.5289688l-8.818619 -9.612762m8.818619 9.612762l-1.1811066 27.637794" fill-rule="nonzero"></path><path stroke="#000000" stroke-width="2.0" stroke-linejoin="round" stroke-linecap="butt" d="m142.9924 115.41275l-8.818619 -9.612762l-58.22075 -2.5289688l-1.1811066 27.637794l8.818619 9.612762l58.22075 2.5289764zm0 0l-58.22075 -2.5289688l-8.818619 -9.612762m8.818619 9.612762l-1.1811066 27.637794" fill-rule="nonzero"></path><path fill="#000000" fill-opacity="0.0" d="m445.20215 97.15863l-143.93701 127.74803" fill-rule="nonzero"></path><path stroke="#9900ff" stroke-width="2.0" stroke-linejoin="round" stroke-linecap="butt" stroke-dasharray="8.0,6.0" d="m445.20215 97.15863l-143.93701 127.74803" fill-rule="nonzero"></path><path fill="#000000" fill-opacity="0.0" d="m163.5617 48.43422l-161.03937 0l0 62.960632l161.03937 0z" fill-rule="nonzero"></path><path fill="#000000" d="m13.287957 75.35422l0 -13.59375l1.8125 0l0 13.59375l-1.8125 0zm4.667678 0l0 -9.859375l1.5 0l0 1.40625q1.09375 -1.625 3.140625 -1.625q0.890625 0 1.640625 0.328125q0.75 0.3125 1.109375 0.84375q0.375 0.515625 0.53125 1.21875q0.09375 0.46875 0.09375 1.625l0 6.0625l-1.671875 0l0 -6.0q0 -1.015625 -0.203125 -1.515625q-0.1875 -0.515625 -0.6875 -0.8125q-0.5 -0.296875 -1.171875 -0.296875q-1.0625 0 -1.84375 0.671875q-0.765625 0.671875 -0.765625 2.578125l0 5.375l-1.671875 0zm10.391342 -11.6875l0 -1.90625l1.671875 0l0 1.90625l-1.671875 0zm0 11.6875l0 -9.859375l1.671875 0l0 9.859375l-1.671875 0zm7.785446 -1.5l0.234375 1.484375q-0.703125 0.140625 -1.265625 0.140625q-0.90625 0 -1.40625 -0.28125q-0.5 -0.296875 -0.703125 -0.75q-0.203125 -0.46875 -0.203125 -1.984375l0 -5.65625l-1.234375 0l0 -1.3125l1.234375 0l0 -2.4375l1.65625 -1.0l0 3.4375l1.6875 0l0 1.3125l-1.6875 0l0 5.75q0 0.71875 0.078125 0.921875q0.09375 0.203125 0.296875 0.328125q0.203125 0.125 0.578125 0.125q0.265625 0 0.734375 -0.078125zm1.5426788 -10.1875l0 -1.90625l1.671875 0l0 1.90625l-1.671875 0zm0 11.6875l0 -9.859375l1.671875 0l0 9.859375l-1.671875 0zm10.566696 -1.21875q-0.9375 0.796875 -1.796875 1.125q-0.859375 0.3125 -1.84375 0.3125q-1.609375 0 -2.484375 -0.78125q-0.875 -0.796875 -0.875 -2.03125q0 -0.734375 0.328125 -1.328125q0.328125 -0.59375 0.859375 -0.953125q0.53125 -0.359375 1.203125 -0.546875q0.5 -0.140625 1.484375 -0.25q2.03125 -0.25 2.984375 -0.578125q0 -0.34375 0 -0.4375q0 -1.015625 -0.46875 -1.4375q-0.640625 -0.5625 -1.90625 -0.5625q-1.171875 0 -1.734375 0.40625q-0.5625 0.40625 -0.828125 1.46875l-1.640625 -0.234375q0.234375 -1.046875 0.734375 -1.6875q0.515625 -0.640625 1.46875 -0.984375q0.96875 -0.359375 2.25 -0.359375q1.265625 0 2.046875 0.296875q0.78125 0.296875 1.15625 0.75q0.375 0.453125 0.515625 1.140625q0.09375 0.421875 0.09375 1.53125l0 2.234375q0 2.328125 0.09375 2.953125q0.109375 0.609375 0.4375 1.171875l-1.75 0q-0.265625 -0.515625 -0.328125 -1.21875zm-0.140625 -3.71875q-0.90625 0.359375 -2.734375 0.625q-1.03125 0.140625 -1.453125 0.328125q-0.421875 0.1875 -0.65625 0.546875q-0.234375 0.359375 -0.234375 0.796875q0 0.671875 0.5 1.125q0.515625 0.4375 1.484375 0.4375q0.96875 0 1.71875 -0.421875q0.75 -0.4375 1.109375 -1.15625q0.265625 -0.578125 0.265625 -1.671875l0 -0.609375zm4.047592 4.9375l0 -13.59375l1.671875 0l0 13.59375l-1.671875 0zm9.328125 0l0 -13.59375l1.671875 0l0 13.59375l-1.671875 0zm3.5510712 -4.921875q0 -2.734375 1.53125 -4.0625q1.265625 -1.09375 3.09375 -1.09375q2.03125 0 3.3125 1.34375q1.296875 1.328125 1.296875 3.671875q0 1.90625 -0.578125 3.0q-0.5625 1.078125 -1.65625 1.6875q-1.078125 0.59375 -2.375 0.59375q-2.0625 0 -3.34375 -1.328125q-1.28125 -1.328125 -1.28125 -3.8125zm1.71875 0q0 1.890625 0.828125 2.828125q0.828125 0.9375 2.078125 0.9375q1.25 0 2.0625 -0.9375q0.828125 -0.953125 0.828125 -2.890625q0 -1.828125 -0.828125 -2.765625q-0.828125 -0.9375 -2.0625 -0.9375q-1.25 0 -2.078125 0.9375q-0.828125 0.9375 -0.828125 2.828125zm15.719467 1.3125l1.640625 0.21875q-0.265625 1.6875 -1.375 2.65625q-1.109375 0.953125 -2.734375 0.953125q-2.015625 0 -3.25 -1.3125q-1.21875 -1.328125 -1.21875 -3.796875q0 -1.59375 0.515625 -2.78125q0.53125 -1.203125 1.609375 -1.796875q1.09375 -0.609375 2.359375 -0.609375q1.609375 0 2.625 0.8125q1.015625 0.8125 1.3125 2.3125l-1.625 0.25q-0.234375 -1.0 -0.828125 -1.5q-0.59375 -0.5 -1.421875 -0.5q-1.265625 0 -2.0625 0.90625q-0.78125 0.90625 -0.78125 2.859375q0 1.984375 0.765625 2.890625q0.765625 0.890625 1.984375 0.890625q0.984375 0 1.640625 -0.59375q0.65625 -0.609375 0.84375 -1.859375zm9.328125 2.390625q-0.9375 0.796875 -1.796875 1.125q-0.859375 0.3125 -1.84375 0.3125q-1.609375 0 -2.484375 -0.78125q-0.875 -0.796875 -0.875 -2.03125q0 -0.734375 0.328125 -1.328125q0.328125 -0.59375 0.859375 -0.953125q0.53125 -0.359375 1.203125 -0.546875q0.5 -0.140625 1.484375 -0.25q2.03125 -0.25 2.984375 -0.578125q0 -0.34375 0 -0.4375q0 -1.015625 -0.46875 -1.4375q-0.640625 -0.5625 -1.90625 -0.5625q-1.171875 0 -1.734375 0.40625q-0.5625 0.40625 -0.828125 1.46875l-1.640625 -0.234375q0.234375 -1.046875 0.734375 -1.6875q0.515625 -0.640625 1.46875 -0.984375q0.96875 -0.359375 2.25 -0.359375q1.265625 0 2.046875 0.296875q0.78125 0.296875 1.15625 0.75q0.375 0.453125 0.515625 1.140625q0.09375 0.421875 0.09375 1.53125l0 2.234375q0 2.328125 0.09375 2.953125q0.109375 0.609375 0.4375 1.171875l-1.75 0q-0.265625 -0.515625 -0.328125 -1.21875zm-0.140625 -3.71875q-0.90625 0.359375 -2.734375 0.625q-1.03125 0.140625 -1.453125 0.328125q-0.421875 0.1875 -0.65625 0.546875q-0.234375 0.359375 -0.234375 0.796875q0 0.671875 0.5 1.125q0.515625 0.4375 1.484375 0.4375q0.96875 0 1.71875 -0.421875q0.75 -0.4375 1.109375 -1.15625q0.265625 -0.578125 0.265625 -1.671875l0 -0.609375zm4.047592 4.9375l0 -13.59375l1.671875 0l0 13.59375l-1.671875 0zm9.765625 0l0 -8.546875l-1.484375 0l0 -1.3125l1.484375 0l0 -1.046875q0 -0.984375 0.171875 -1.46875q0.234375 -0.65625 0.84375 -1.046875q0.609375 -0.40625 1.703125 -0.40625q0.703125 0 1.5625 0.15625l-0.25 1.46875q-0.515625 -0.09375 -0.984375 -0.09375q-0.765625 0 -1.078125 0.328125q-0.3125 0.3125 -0.3125 1.203125l0 0.90625l1.921875 0l0 1.3125l-1.921875 0l0 8.546875l-1.65625 0zm4.761429 0l0 -9.859375l1.5 0l0 1.5q0.578125 -1.046875 1.0625 -1.375q0.484375 -0.34375 1.078125 -0.34375q0.84375 0 1.71875 0.546875l-0.578125 1.546875q-0.609375 -0.359375 -1.234375 -0.359375q-0.546875 0 -0.984375 0.328125q-0.421875 0.328125 -0.609375 0.90625q-0.28125 0.890625 -0.28125 1.953125l0 5.15625l-1.671875 0zm12.665802 -1.21875q-0.9375 0.796875 -1.796875 1.125q-0.859375 0.3125 -1.84375 0.3125q-1.609375 0 -2.484375 -0.78125q-0.875 -0.796875 -0.875 -2.03125q0 -0.734375 0.328125 -1.328125q0.328125 -0.59375 0.859375 -0.953125q0.53125 -0.359375 1.203125 -0.546875q0.5 -0.140625 1.484375 -0.25q2.03125 -0.25 2.984375 -0.578125q0 -0.34375 0 -0.4375q0 -1.015625 -0.46875 -1.4375q-0.640625 -0.5625 -1.90625 -0.5625q-1.171875 0 -1.734375 0.40625q-0.5625 0.40625 -0.828125 1.46875l-1.640625 -0.234375q0.234375 -1.046875 0.734375 -1.6875q0.515625 -0.640625 1.46875 -0.984375q0.96875 -0.359375 2.25 -0.359375q1.265625 0 2.046875 0.296875q0.78125 0.296875 1.15625 0.75q0.375 0.453125 0.515625 1.140625q0.09375 0.421875 0.09375 1.53125l0 2.234375q0 2.328125 0.09375 2.953125q0.109375 0.609375 0.4375 1.171875l-1.75 0q-0.265625 -0.515625 -0.328125 -1.21875zm-0.140625 -3.71875q-0.90625 0.359375 -2.734375 0.625q-1.03125 0.140625 -1.453125 0.328125q-0.421875 0.1875 -0.65625 0.546875q-0.234375 0.359375 -0.234375 0.796875q0 0.671875 0.5 1.125q0.515625 0.4375 1.484375 0.4375q0.96875 0 1.71875 -0.421875q0.75 -0.4375 1.109375 -1.15625q0.265625 -0.578125 0.265625 -1.671875l0 -0.609375zm4.078842 4.9375l0 -9.859375l1.5000076 0l0 1.390625q0.453125 -0.71875 1.21875 -1.15625q0.78125 -0.453125 1.765625 -0.453125q1.09375 0 1.796875 0.453125q0.703125 0.453125 0.984375 1.28125q1.171875 -1.734375 3.046875 -1.734375q1.46875 0 2.25 0.8125q0.796875 0.8125 0.796875 2.5l0 6.765625l-1.671875 0l0 -6.203125q0 -1.0 -0.15625 -1.4375q-0.15625 -0.453125 -0.59375 -0.71875q-0.421875 -0.265625 -1.0 -0.265625q-1.03125 0 -1.71875 0.6875q-0.6875 0.6875 -0.6875 2.21875l0 5.71875l-1.671875 0l0 -6.40625q0 -1.109375 -0.40625 -1.65625q-0.40625 -0.5625 -1.34375 -0.5625q-0.703125 0 -1.3125 0.375q-0.59375 0.359375 -0.859375 1.078125q-0.265625 0.71875 -0.265625 2.0625l0 5.109375l-1.6718826 0zm22.29081 -3.171875l1.71875 0.21875q-0.40625 1.5 -1.515625 2.34375q-1.09375 0.828125 -2.8125 0.828125q-2.15625 0 -3.421875 -1.328125q-1.265625 -1.328125 -1.265625 -3.734375q0 -2.484375 1.265625 -3.859375q1.28125 -1.375 3.328125 -1.375q1.984375 0 3.234375 1.34375q1.25 1.34375 1.25 3.796875q0 0.140625 -0.015625 0.4375l-7.34375 0q0.09375 1.625 0.921875 2.484375q0.828125 0.859375 2.0625 0.859375q0.90625 0 1.546875 -0.46875q0.65625 -0.484375 1.046875 -1.546875zm-5.484375 -2.703125l5.5 0q-0.109375 -1.234375 -0.625 -1.859375q-0.796875 -0.96875 -2.078125 -0.96875q-1.140625 0 -1.9375 0.78125q-0.78125 0.765625 -0.859375 2.046875z" fill-rule="nonzero"></path><path fill="#000000" fill-opacity="0.0" d="m116.41555 131.62848l-10.29921 -31.590553" fill-rule="nonzero"></path><path stroke="#00ff00" stroke-width="4.0" stroke-linejoin="round" stroke-linecap="butt" d="m116.41555 131.62848l-10.29921 -31.590553" fill-rule="nonzero"></path><path fill="#000000" fill-opacity="0.0" d="m114.02103 130.7702l40.409454 0.75590515" fill-rule="nonzero"></path><path stroke="#0000ff" stroke-width="4.0" stroke-linejoin="round" stroke-linecap="butt" d="m114.02103 130.7702l40.409454 0.75590515" fill-rule="nonzero"></path><path fill="#cfe2f3" d="m468.5707 112.17444l-27.785706 -51.221394l-24.35434 13.204723l27.785706 51.221397z" fill-rule="nonzero"></path><path fill="#a5b4c2" d="m440.785 60.953045l3.7148438 -12.5187645l-24.35434 13.204723l-3.7148438 12.5187645z" fill-rule="nonzero"></path><path fill="#d8e7f5" d="m468.5707 112.17444l3.7148438 -12.518761l-27.785706 -51.221397l-3.7148438 12.5187645z" fill-rule="nonzero"></path><path fill="#000000" fill-opacity="0.0" d="m468.5707 112.17444l3.7148438 -12.518761l-27.785706 -51.221397l-24.35434 13.204723l-3.7148438 12.5187645l27.785706 51.221397zm0 0l-27.785706 -51.221394l3.7148438 -12.5187645m-3.7148438 12.5187645l-24.35434 13.204723" fill-rule="nonzero"></path><path stroke="#000000" stroke-width="2.0" stroke-linejoin="round" stroke-linecap="butt" d="m468.5707 112.17444l3.7148438 -12.518761l-27.785706 -51.221397l-24.35434 13.204723l-3.7148438 12.5187645l27.785706 51.221397zm0 0l-27.785706 -51.221394l3.7148438 -12.5187645m-3.7148438 12.5187645l-24.35434 13.204723" fill-rule="nonzero"></path><path fill="#9900ff" d="m113.9687 133.95667l69.15421 -74.83038l2.2362213 2.0708694l-0.3353119 -8.618435l-8.609573 0.33496857l2.2362213 2.0708656l-69.15421 74.83038z" fill-rule="nonzero"></path><path stroke="#000000" stroke-width="1.0" stroke-linejoin="round" stroke-linecap="butt" d="m113.9687 133.95667l69.15421 -74.83038l2.2362213 2.0708694l-0.3353119 -8.618435l-8.609573 0.33496857l2.2362213 2.0708656l-69.15421 74.83038z" fill-rule="nonzero"></path><path fill="#000000" fill-opacity="0.0" d="m299.65097 21.308233l-143.05513 0l0 31.496065l143.05513 0z" fill-rule="nonzero"></path><path fill="#9900ff" d="m179.08022 35.65011l0 0.34375q-0.65625 0.125 -1.0 0.421875q-0.5 0.453125 -0.875 1.390625l-4.390625 10.703125l-0.34375 0l-4.71875 -10.84375q-0.359375 -0.828125 -0.5 -1.015625q-0.234375 -0.28125 -0.578125 -0.4375q-0.328125 -0.171875 -0.90625 -0.21875l0 -0.34375l5.140625 0l0 0.34375q-0.875 0.078125 -1.140625 0.296875q-0.25 0.203125 -0.25 0.546875q0 0.46875 0.421875 1.4375l3.203125 7.390625l2.96875 -7.296875q0.4375 -1.0625 0.4375 -1.484375q0 -0.265625 -0.28125 -0.515625q-0.265625 -0.25 -0.90625 -0.34375q-0.046875 -0.015625 -0.15625 -0.03125l0 -0.34375l3.875 0z" fill-rule="nonzero"></path><path fill="#000000" fill-opacity="0.0" d="m118.02887 86.732285l-0.47244263 42.708664" fill-rule="nonzero"></path><path stroke="#ff0000" stroke-width="4.0" stroke-linejoin="round" stroke-linecap="butt" d="m118.02887 86.732285l-0.47244263 42.708664" fill-rule="nonzero"></path><path fill="#3d85c6" d="m301.3675 234.79117l0 0c5.218445 0 9.448822 -4.0259094 9.448822 -8.992126l0 0c0 -2.3848572 -0.9954834 -4.672043 -2.7674866 -6.358383c-1.7720032 -1.6863556 -4.175354 -2.6337433 -6.6813354 -2.6337433l0 0c-5.218445 0 -9.448822 4.0259247 -9.448822 8.992126l0 0c0 4.966217 4.230377 8.992126 9.448822 8.992126z" fill-rule="nonzero"></path><path stroke="#000000" stroke-width="2.0" stroke-linejoin="round" stroke-linecap="butt" d="m301.3675 234.79117l0 0c5.218445 0 9.448822 -4.0259094 9.448822 -8.992126l0 0c0 -2.3848572 -0.9954834 -4.672043 -2.7674866 -6.358383c-1.7720032 -1.6863556 -4.175354 -2.6337433 -6.6813354 -2.6337433l0 0c-5.218445 0 -9.448822 4.0259247 -9.448822 8.992126l0 0c0 4.966217 4.230377 8.992126 9.448822 8.992126z" fill-rule="nonzero"></path><path fill="#a64d79" d="m444.4108 95.130226l-43.664124 38.444633l-2.346466 -2.6771545l-0.6508179 10.059296l10.036652 0.6493683l-2.346466 -2.6771698l43.664154 -38.44464z" fill-rule="nonzero"></path><path stroke="#000000" stroke-width="1.0" stroke-linejoin="round" stroke-linecap="butt" d="m444.4108 95.130226l-43.664124 38.444633l-2.346466 -2.6771545l-0.6508179 10.059296l10.036652 0.6493683l-2.346466 -2.6771698l43.664154 -38.44464z" fill-rule="nonzero"></path><path fill="#000000" fill-opacity="0.0" d="m455.64835 235.83842l-242.89764 0l0 62.960617l242.89764 0z" fill-rule="nonzero"></path><path fill="#3d85c6" d="m223.01633 251.07092l0 -1.90625l1.671875 0l0 1.90625l-1.671875 0zm0 11.6875l0 -9.859375l1.671875 0l0 9.859375l-1.671875 0zm25.081161 0l0 -13.59375l5.125 0q1.359375 0 2.078125 0.125q0.99998474 0.171875 1.6718597 0.640625q0.671875 0.46875 1.078125 1.3125q0.421875 0.84375 0.421875 1.84375q0 1.734375 -1.109375 2.9375q-1.09375 1.203125 -3.9843597 1.203125l-3.484375 0l0 5.53125l-1.796875 0zm1.796875 -7.140625l3.515625 0q1.75 0 2.46875 -0.640625q0.73435974 -0.65625 0.73435974 -1.828125q0 -0.859375 -0.4375 -1.46875q-0.42185974 -0.609375 -1.1249847 -0.796875q-0.453125 -0.125 -1.671875 -0.125l-3.484375 0l0 4.859375zm9.802933 2.21875q0 -2.734375 1.53125 -4.0625q1.265625 -1.09375 3.09375 -1.09375q2.03125 0 3.3125 1.34375q1.296875 1.328125 1.296875 3.671875q0 1.90625 -0.578125 3.0q-0.5625 1.078125 -1.65625 1.6875q-1.078125 0.59375 -2.375 0.59375q-2.0625 0 -3.34375 -1.328125q-1.28125 -1.328125 -1.28125 -3.8125zm1.71875 0q0 1.890625 0.828125 2.828125q0.828125 0.9375 2.078125 0.9375q1.25 0 2.0625 -0.9375q0.828125 -0.953125 0.828125 -2.890625q0 -1.828125 -0.828125 -2.765625q-0.828125 -0.9375 -2.0625 -0.9375q-1.25 0 -2.078125 0.9375q-0.828125 0.9375 -0.828125 2.828125zm9.297607 -6.765625l0 -1.90625l1.671875 0l0 1.90625l-1.671875 0zm0 11.6875l0 -9.859375l1.671875 0l0 9.859375l-1.671875 0zm4.129181 0l0 -9.859375l1.5 0l0 1.40625q1.09375 -1.625 3.140625 -1.625q0.890625 0 1.640625 0.328125q0.75 0.3125 1.109375 0.84375q0.375 0.515625 0.53125 1.21875q0.09375 0.46875 0.09375 1.625l0 6.0625l-1.671875 0l0 -6.0q0 -1.015625 -0.203125 -1.515625q-0.1875 -0.515625 -0.6875 -0.8125q-0.5 -0.296875 -1.171875 -0.296875q-1.0625 0 -1.84375 0.671875q-0.765625 0.671875 -0.765625 2.578125l0 5.375l-1.671875 0zm14.031982 -1.5l0.234375 1.484375q-0.703125 0.140625 -1.265625 0.140625q-0.90625 0 -1.40625 -0.28125q-0.5 -0.296875 -0.703125 -0.75q-0.203125 -0.46875 -0.203125 -1.984375l0 -5.65625l-1.234375 0l0 -1.3125l1.234375 0l0 -2.4375l1.65625 -1.0l0 3.4375l1.6875 0l0 1.3125l-1.6875 0l0 5.75q0 0.71875 0.078125 0.921875q0.09375 0.203125 0.296875 0.328125q0.203125 0.125 0.578125 0.125q0.265625 0 0.734375 -0.078125zm7.1166077 1.5l0 -8.546875l-1.484375 0l0 -1.3125l1.484375 0l0 -1.046875q0 -0.984375 0.171875 -1.46875q0.234375 -0.65625 0.84375 -1.046875q0.609375 -0.40625 1.703125 -0.40625q0.703125 0 1.5625 0.15625l-0.25 1.46875q-0.515625 -0.09375 -0.984375 -0.09375q-0.765625 0 -1.078125 0.328125q-0.3125 0.3125 -0.3125 1.203125l0 0.90625l1.921875 0l0 1.3125l-1.921875 0l0 8.546875l-1.65625 0zm11.527039 -3.171875l1.71875 0.21875q-0.40625 1.5 -1.515625 2.34375q-1.09375 0.828125 -2.8125 0.828125q-2.15625 0 -3.421875 -1.328125q-1.265625 -1.328125 -1.265625 -3.734375q0 -2.484375 1.265625 -3.859375q1.28125 -1.375 3.328125 -1.375q1.984375 0 3.234375 1.34375q1.25 1.34375 1.25 3.796875q0 0.140625 -0.015625 0.4375l-7.34375 0q0.09375 1.625 0.921875 2.484375q0.828125 0.859375 2.0625 0.859375q0.90625 0 1.546875 -0.46875q0.65625 -0.484375 1.046875 -1.546875zm-5.484375 -2.703125l5.5 0q-0.109375 -1.234375 -0.625 -1.859375q-0.796875 -0.96875 -2.078125 -0.96875q-1.140625 0 -1.9375 0.78125q-0.78125 0.765625 -0.859375 2.046875zm15.547607 4.65625q-0.9375 0.796875 -1.796875 1.125q-0.859375 0.3125 -1.84375 0.3125q-1.609375 0 -2.484375 -0.78125q-0.875 -0.796875 -0.875 -2.03125q0 -0.734375 0.328125 -1.328125q0.328125 -0.59375 0.859375 -0.953125q0.53125 -0.359375 1.203125 -0.546875q0.5 -0.140625 1.484375 -0.25q2.03125 -0.25 2.984375 -0.578125q0 -0.34375 0 -0.4375q0 -1.015625 -0.46875 -1.4375q-0.640625 -0.5625 -1.90625 -0.5625q-1.171875 0 -1.734375 0.40625q-0.5625 0.40625 -0.828125 1.46875l-1.640625 -0.234375q0.234375 -1.046875 0.734375 -1.6875q0.515625 -0.640625 1.46875 -0.984375q0.96875 -0.359375 2.25 -0.359375q1.265625 0 2.046875 0.296875q0.78125 0.296875 1.15625 0.75q0.375 0.453125 0.515625 1.140625q0.09375 0.421875 0.09375 1.53125l0 2.234375q0 2.328125 0.09375 2.953125q0.109375 0.609375 0.4375 1.171875l-1.75 0q-0.265625 -0.515625 -0.328125 -1.21875zm-0.140625 -3.71875q-0.90625 0.359375 -2.734375 0.625q-1.03125 0.140625 -1.453125 0.328125q-0.421875 0.1875 -0.65625 0.546875q-0.234375 0.359375 -0.234375 0.796875q0 0.671875 0.5 1.125q0.515625 0.4375 1.484375 0.4375q0.96875 0 1.71875 -0.421875q0.75 -0.4375 1.109375 -1.15625q0.265625 -0.578125 0.265625 -1.671875l0 -0.609375zm7.735077 3.4375l0.234375 1.484375q-0.703125 0.140625 -1.265625 0.140625q-0.90625 0 -1.40625 -0.28125q-0.5 -0.296875 -0.703125 -0.75q-0.203125 -0.46875 -0.203125 -1.984375l0 -5.65625l-1.234375 0l0 -1.3125l1.234375 0l0 -2.4375l1.65625 -1.0l0 3.4375l1.6875 0l0 1.3125l-1.6875 0l0 5.75q0 0.71875 0.078125 0.921875q0.09375 0.203125 0.296875 0.328125q0.203125 0.125 0.578125 0.125q0.265625 0 0.734375 -0.078125zm7.980194 1.5l0 -1.453125q-1.140625 1.671875 -3.125 1.671875q-0.859375 0 -1.625 -0.328125q-0.75 -0.34375 -1.125 -0.84375q-0.359375 -0.5 -0.515625 -1.234375q-0.09375 -0.5 -0.09375 -1.5625l0 -6.109375l1.671875 0l0 5.46875q0 1.3125 0.09375 1.765625q0.15625 0.65625 0.671875 1.03125q0.515625 0.375 1.265625 0.375q0.75 0 1.40625 -0.375q0.65625 -0.390625 0.921875 -1.046875q0.28125 -0.671875 0.28125 -1.9375l0 -5.28125l1.671875 0l0 9.859375l-1.5 0zm3.906952 0l0 -9.859375l1.5 0l0 1.5q0.578125 -1.046875 1.0625 -1.375q0.484375 -0.34375 1.078125 -0.34375q0.84375 0 1.71875 0.546875l-0.578125 1.546875q-0.609375 -0.359375 -1.234375 -0.359375q-0.546875 0 -0.984375 0.328125q-0.421875 0.328125 -0.609375 0.90625q-0.28125 0.890625 -0.28125 1.953125l0 5.15625l-1.671875 0zm12.978302 -3.171875l1.71875 0.21875q-0.40625 1.5 -1.515625 2.34375q-1.09375 0.828125 -2.8125 0.828125q-2.15625 0 -3.421875 -1.328125q-1.265625 -1.328125 -1.265625 -3.734375q0 -2.484375 1.265625 -3.859375q1.28125 -1.375 3.328125 -1.375q1.984375 0 3.234375 1.34375q1.25 1.34375 1.25 3.796875q0 0.140625 -0.015625 0.4375l-7.34375 0q0.09375 1.625 0.921875 2.484375q0.828125 0.859375 2.0625 0.859375q0.90625 0 1.546875 -0.46875q0.65625 -0.484375 1.046875 -1.546875zm-5.484375 -2.703125l5.5 0q-0.109375 -1.234375 -0.625 -1.859375q-0.796875 -0.96875 -2.078125 -0.96875q-1.140625 0 -1.9375 0.78125q-0.78125 0.765625 -0.859375 2.046875z" fill-rule="nonzero"></path><path fill="#000000" fill-opacity="0.0" d="m256.7188 229.48425l-41.95276 0l0 36.881897l41.95276 0z" fill-rule="nonzero"></path><path fill="#3d85c6" d="m230.82841 250.26863l0.15625 1.0q-0.484375 0.109375 -0.859375 0.109375q-0.625 0 -0.96875 -0.203125q-0.34375 -0.203125 -0.484375 -0.515625q-0.140625 -0.328125 -0.140625 -1.34375l0 -3.890625l-0.828125 0l0 -0.875l0.828125 0l0 -1.671875l1.140625 -0.6875l0 2.359375l1.15625 0l0 0.875l-1.15625 0l0 3.953125q0 0.484375 0.0625 0.625q0.0625 0.140625 0.1875 0.21875q0.140625 0.078125 0.390625 0.078125q0.203125 0 0.515625 -0.03125zm1.2029877 1.015625l0 -9.3125l1.140625 0l0 3.34375q0.796875 -0.921875 2.015625 -0.921875q0.75 0 1.296875 0.296875q0.5625 0.296875 0.796875 0.8125q0.234375 0.515625 0.234375 1.515625l0 4.265625l-1.140625 0l0 -4.265625q0 -0.859375 -0.375 -1.25q-0.359375 -0.390625 -1.046875 -0.390625q-0.5 0 -0.953125 0.265625q-0.453125 0.25 -0.640625 0.703125q-0.1875 0.453125 -0.1875 1.25l0 3.6875l-1.140625 0z" fill-rule="nonzero"></path><path fill="#000000" fill-opacity="0.0" d="m487.5797 292.4398l-394.9606 -3.4015808" fill-rule="nonzero"></path><path stroke="#000000" stroke-width="2.0" stroke-linejoin="round" stroke-linecap="butt" d="m480.7258 292.38077l-388.1067 -3.3425598" fill-rule="evenodd"></path><path fill="#000000" stroke="#000000" stroke-width="2.0" stroke-linecap="butt" d="m480.7258 292.38077l-2.2684631 2.2297058l6.1987 -2.1958618l-6.1599426 -2.3023071z" fill-rule="evenodd"></path><path fill="#000000" fill-opacity="0.0" d="m393.40543 299.84387l58.477356 0l0 36.881897l-58.477356 0z" fill-rule="nonzero"></path><path fill="#000000" d="m407.31168 325.2639l0.234375 1.484375q-0.703125 0.140625 -1.265625 0.140625q-0.90625 0 -1.40625 -0.28125q-0.5 -0.296875 -0.703125 -0.75q-0.203125 -0.46875 -0.203125 -1.984375l0 -5.65625l-1.234375 0l0 -1.3125l1.234375 0l0 -2.4375l1.65625 -1.0l0 3.4375l1.6875 0l0 1.3125l-1.6875 0l0 5.75q0 0.71875 0.078125 0.921875q0.09375 0.203125 0.296875 0.328125q0.203125 0.125 0.578125 0.125q0.265625 0 0.734375 -0.078125z" fill-rule="nonzero"></path><path fill="#000000" fill-opacity="0.0" d="m400.7568 309.61554l39.89041 0l0 18.897614l-39.89041 0z" fill-rule="nonzero"></path><path fill="#000000" d="m410.60056 323.43115l0 -1.328125l1.15625 0l0 1.328125l-1.15625 0zm-1.4375 10.59375l0.21875 -0.96875q0.34375 0.09375 0.53125 0.09375q0.359375 0 0.515625 -0.234375q0.171875 -0.234375 0.171875 -1.15625l0 -7.078125l1.15625 0l0 7.109375q0 1.234375 -0.328125 1.71875q-0.421875 0.640625 -1.375 0.640625q-0.46875 0 -0.890625 -0.125z" fill-rule="nonzero"></path><path fill="#000000" fill-opacity="0.0" d="m79.63451 299.84723l58.47734 0l0 36.878204l-58.47734 0z" fill-rule="nonzero"></path><path fill="#000000" d="m93.54076 325.26724l0.234375 1.484375q-0.703125 0.140625 -1.265625 0.140625q-0.90625 0 -1.40625 -0.28125q-0.5 -0.296875 -0.703125 -0.75q-0.203125 -0.46875 -0.203125 -1.984375l0 -5.65625l-1.234375 0l0 -1.3125l1.234375 0l0 -2.4375l1.65625 -1.0l0 3.4375l1.6875 0l0 1.3125l-1.6875 0l0 5.75q0 0.71875 0.078125 0.921875q0.09375 0.203125 0.296875 0.328125q0.203125 0.125 0.578125 0.125q0.265625 0 0.734375 -0.078125z" fill-rule="nonzero"></path><path fill="#000000" fill-opacity="0.0" d="m86.98587 309.61792l39.89041 0l0 18.895752l-39.89041 0z" fill-rule="nonzero"></path><path fill="#000000" d="m100.82962 331.4179l-1.140625 0l0 -7.28125q-0.421875 0.390625 -1.09375 0.796875q-0.65625 0.390625 -1.1875 0.578125l0 -1.109375q0.953125 -0.4375 1.671875 -1.078125q0.71875 -0.640625 1.015625 -1.25l0.734375 0l0 9.34375z" fill-rule="nonzero"></path><path fill="#000000" fill-opacity="0.0" d="m110.13126 127.3266l184.56693 92.12598" fill-rule="nonzero"></path><path stroke="#9900ff" stroke-width="2.0" stroke-linejoin="round" stroke-linecap="butt" stroke-dasharray="8.0,6.0" d="m110.13126 127.3266l184.56693 92.12598" fill-rule="nonzero"></path><path fill="#000000" fill-opacity="0.0" d="m461.68927 135.9432l-58.48819 0l0 36.88188l58.48819 0z" fill-rule="nonzero"></path><path fill="#a64d79" d="m414.88858 154.69133l1.375 0l-1.671875 5.671875q-0.1875 0.640625 -0.1875 0.984375q0 0.40625 0.265625 0.703125q0.28125 0.296875 0.71875 0.296875q0.734375 0 1.65625 -0.90625q0.921875 -0.921875 1.3125 -2.25l1.34375 -4.5l1.375 0l-1.671875 5.640625q-0.203125 0.734375 -0.203125 1.15625q0 0.71875 0.609375 0.71875q0.6875 0 1.078125 -1.25l0.328125 0q-0.53125 2.125 -1.953125 2.125q-0.609375 0 -0.984375 -0.4375q-0.375 -0.453125 -0.375 -1.15625q0 -0.171875 0.046875 -0.515625q-1.78125 2.109375 -3.140625 2.109375q-1.046875 0 -1.4375 -0.921875q-0.5 1.96875 -0.609375 3.359375q-0.09375 0.875 -0.25 1.15625q-0.140625 0.28125 -0.59375 0.28125q-0.375 0 -0.546875 -0.234375q-0.171875 -0.21875 -0.171875 -0.484375q0 -0.375 0.4375 -1.3125q0.546875 -1.109375 0.828125 -2.046875l2.421875 -8.1875z" fill-rule="nonzero"></path><path fill="#000000" fill-opacity="0.0" d="m456.62704 146.87784l-39.905518 0l0 18.897644l39.905518 0z" fill-rule="nonzero"></path><path fill="#a64d79" d="m427.78403 160.67784l0.28125 -1.3125l1.125 0l-0.265625 1.3125l-1.140625 0zm-3.640625 10.53125l0.203125 -0.96875q0.390625 0.09375 0.703125 0.09375q0.359375 0 0.59375 -0.25q0.21875 -0.234375 0.453125 -1.34375l1.40625 -6.796875l1.15625 0l-1.46875 7.0q-0.265625 1.328125 -0.625 1.796875q-0.46875 0.640625 -1.328125 0.640625q-0.453125 0 -1.09375 -0.171875z" fill-rule="nonzero"></path><path fill="#000000" fill-opacity="0.0" d="m454.8403 130.77032l-39.905518 0l0 18.897629l39.905518 0z" fill-rule="nonzero"></path><path fill="#a64d79" d="m425.99728 144.57031l0.28125 -1.3125l1.140625 0l-0.28125 1.3125l-1.140625 0zm-1.671875 8.0l1.40625 -6.734375l1.15625 0l-1.421875 6.734375l-1.140625 0z" fill-rule="nonzero"></path><path fill="#000000" fill-opacity="0.0" d="m223.84781 109.431625l-58.48819 0l0 36.881897l58.48819 0z" fill-rule="nonzero"></path><path fill="#a64d79" d="m177.04712 128.17975l1.375 0l-1.671875 5.671875q-0.1875 0.640625 -0.1875 0.984375q0 0.40625 0.265625 0.703125q0.28125 0.296875 0.71875 0.296875q0.734375 0 1.65625 -0.90625q0.921875 -0.921875 1.3125 -2.25l1.34375 -4.5l1.375 0l-1.671875 5.640625q-0.203125 0.734375 -0.203125 1.15625q0 0.71875 0.609375 0.71875q0.6875 0 1.078125 -1.25l0.328125 0q-0.53125 2.125 -1.953125 2.125q-0.609375 0 -0.984375 -0.4375q-0.375 -0.453125 -0.375 -1.15625q0 -0.171875 0.046875 -0.515625q-1.78125 2.109375 -3.140625 2.109375q-1.046875 0 -1.4375 -0.921875q-0.5 1.96875 -0.609375 3.359375q-0.09375 0.875 -0.25 1.15625q-0.140625 0.28125 -0.59375 0.28125q-0.375 0 -0.546875 -0.234375q-0.171875 -0.21875 -0.171875 -0.484375q0 -0.375 0.4375 -1.3125q0.546875 -1.109375 0.828125 -2.046875l2.421875 -8.1875z" fill-rule="nonzero"></path><path fill="#000000" fill-opacity="0.0" d="m212.75177 122.54178l-39.905518 0l0 18.897644l39.905518 0z" fill-rule="nonzero"></path><path fill="#a64d79" d="m184.97125 144.34178l1.484375 -7.03125q-0.953125 0.75 -2.6875 1.203125l0.21875 -1.046875q0.859375 -0.34375 1.6875 -0.890625q0.84375 -0.546875 1.25 -0.96875q0.265625 -0.25 0.484375 -0.609375l0.671875 0l-1.953125 9.34375l-1.15625 0z" fill-rule="nonzero"></path><path fill="#9900ff" d="m110.661415 129.16815l-0.059043884 100.0l-3.338585 0l6.673218 6.67717l6.681114 -6.67717l-3.338585 0l0.059051514 -100.0z" fill-rule="nonzero"></path><path stroke="#000000" stroke-width="1.0" stroke-linejoin="round" stroke-linecap="butt" d="m110.661415 129.16815l-0.059043884 100.0l-3.338585 0l6.673218 6.67717l6.681114 -6.67717l-3.338585 0l0.059051514 -100.0z" fill-rule="nonzero"></path><path fill="#000000" fill-opacity="0.0" d="m216.86487 106.43425l-39.905502 0l0 18.897636l39.905502 0z" fill-rule="nonzero"></path><path fill="#a64d79" d="m188.02187 120.23425l0.28125 -1.3125l1.140625 0l-0.28125 1.3125l-1.140625 0zm-1.671875 8.0l1.40625 -6.734375l1.15625 0l-1.421875 6.734375l-1.140625 0z" fill-rule="nonzero"></path><path fill="#a64d79" d="m108.69032 130.33447l52.851196 25.336899l-1.4409485 3.0078735l8.896835 -3.1321716l-3.1330566 -8.8993225l-1.4409332 3.0078735l-52.851204 -25.336899z" fill-rule="nonzero"></path><path stroke="#000000" stroke-width="1.0" stroke-linejoin="round" stroke-linecap="butt" d="m108.69032 130.33447l52.851196 25.336899l-1.4409485 3.0078735l8.896835 -3.1321716l-3.1330566 -8.8993225l-1.4409332 3.0078735l-52.851204 -25.336899z" fill-rule="nonzero"></path><path fill="#000000" fill-opacity="0.0" d="m408.31894 187.82794l-58.48819 0l0 36.88188l58.48819 0z" fill-rule="nonzero"></path><path fill="#9900ff" d="m359.87762 214.74794l-1.640625 0l5.78125 -8.3125l0.03125 -1.5625q0 -1.421875 -0.296875 -1.828125q-0.28125 -0.421875 -0.703125 -0.421875q-0.84375 0 -1.109375 1.40625l-0.328125 0q0.109375 -1.09375 0.59375 -1.78125q0.5 -0.6875 1.15625 -0.6875q0.578125 0 0.859375 0.484375q0.28125 0.46875 0.28125 1.671875q0 0.140625 0 0.375l-0.25 7.828125q-0.015625 0.140625 -0.015625 0.265625q0 1.59375 1.0 1.59375q0.859375 0 1.0 -1.109375l0.34375 0q-0.015625 0.9375 -0.4375 1.5625q-0.421875 0.625 -1.125 0.625q-1.25 0 -1.25 -1.65625q0 -0.09375 0.015625 -0.609375l0.140625 -3.71875l-4.046875 5.875z" fill-rule="nonzero"></path><path fill="#000000" fill-opacity="0.0" d="m397.2229 200.93808l-39.905518 0l0 18.897629l39.905518 0z" fill-rule="nonzero"></path><path fill="#9900ff" d="m368.37988 214.73807l0.28125 -1.3125l1.125 0l-0.265625 1.3125l-1.140625 0zm-3.640625 10.53125l0.203125 -0.96875q0.390625 0.09375 0.703125 0.09375q0.359375 0 0.59375 -0.25q0.21875 -0.234375 0.453125 -1.34375l1.40625 -6.796875l1.15625 0l-1.46875 7.0q-0.265625 1.328125 -0.625 1.796875q-0.46875 0.640625 -1.328125 0.640625q-0.453125 0 -1.09375 -0.171875z" fill-rule="nonzero"></path><path fill="#000000" fill-opacity="0.0" d="m398.23627 184.13054l-39.905518 0l0 18.897629l39.905518 0z" fill-rule="nonzero"></path><path fill="#9900ff" d="m369.39325 197.93054l0.28125 -1.3125l1.140625 0l-0.28125 1.3125l-1.140625 0zm-1.671875 8.0l1.40625 -6.734375l1.15625 0l-1.421875 6.734375l-1.140625 0z" fill-rule="nonzero"></path><path fill="#000000" fill-opacity="0.0" d="m247.98299 186.32925l-58.48819 0l0 36.88188l58.48819 0z" fill-rule="nonzero"></path><path fill="#9900ff" d="m199.54167 213.24925l-1.640625 0l5.78125 -8.3125l0.03125 -1.5625q0 -1.421875 -0.296875 -1.828125q-0.28125 -0.421875 -0.703125 -0.421875q-0.84375 0 -1.109375 1.40625l-0.328125 0q0.109375 -1.09375 0.59375 -1.78125q0.5 -0.6875 1.15625 -0.6875q0.578125 0 0.859375 0.484375q0.28125 0.46875 0.28125 1.671875q0 0.140625 0 0.375l-0.25 7.828125q-0.015625 0.140625 -0.015625 0.265625q0 1.59375 1.0 1.59375q0.859375 0 1.0 -1.109375l0.34375 0q-0.015625 0.9375 -0.4375 1.5625q-0.421875 0.625 -1.125 0.625q-1.25 0 -1.25 -1.65625q0 -0.09375 0.015625 -0.609375l0.140625 -3.71875l-4.046875 5.875z" fill-rule="nonzero"></path><path fill="#000000" fill-opacity="0.0" d="m236.88693 199.43939l-39.905502 0l0 18.897629l39.905502 0z" fill-rule="nonzero"></path><path fill="#9900ff" d="m209.10643 221.23938l1.484375 -7.03125q-0.953125 0.75 -2.6875 1.203125l0.21875 -1.046875q0.859375 -0.34375 1.6875 -0.890625q0.84375 -0.546875 1.25 -0.96875q0.265625 -0.25 0.484375 -0.609375l0.671875 0l-1.953125 9.34375l-1.15625 0z" fill-rule="nonzero"></path><path fill="#000000" fill-opacity="0.0" d="m237.90033 182.63185l-39.905518 0l0 18.897629l39.905518 0z" fill-rule="nonzero"></path><path fill="#9900ff" d="m209.05731 196.43185l0.28125 -1.3125l1.140625 0l-0.28125 1.3125l-1.140625 0zm-1.671875 8.0l1.40625 -6.734375l1.15625 0l-1.421875 6.734375l-1.140625 0z" fill-rule="nonzero"></path><path fill="#000000" fill-opacity="0.0" d="m211.0919 157.12714l-143.05511 0l0 31.496063l143.05511 0z" fill-rule="nonzero"></path><path fill="#9900ff" d="m88.69304 171.17213l0.328125 3.984375l-0.328125 0q-0.484375 -1.484375 -1.265625 -2.25q-1.125 -1.078125 -2.890625 -1.078125q-2.390625 0 -3.65625 1.90625q-1.046875 1.59375 -1.046875 3.8125q0 1.8125 0.6875 3.296875q0.703125 1.484375 1.828125 2.171875q1.140625 0.6875 2.328125 0.6875q0.6875 0 1.328125 -0.171875q0.65625 -0.1875 1.265625 -0.53125l0 -3.625q0 -0.953125 -0.140625 -1.234375q-0.140625 -0.296875 -0.453125 -0.453125q-0.296875 -0.15625 -1.0625 -0.15625l0 -0.34375l4.875 0l0 0.34375l-0.234375 0q-0.71875 0 -0.984375 0.484375q-0.1875 0.34375 -0.1875 1.359375l0 3.84375q-1.078125 0.578125 -2.125 0.84375q-1.03125 0.265625 -2.296875 0.265625q-3.640625 0 -5.53125 -2.328125q-1.421875 -1.75 -1.421875 -4.046875q0 -1.65625 0.796875 -3.1875q0.9375 -1.8125 2.59375 -2.78125q1.390625 -0.8125 3.265625 -0.8125q0.6875 0 1.25 0.125q0.5625 0.109375 1.59375 0.484375q0.515625 0.203125 0.6875 0.203125q0.1875 0 0.3125 -0.15625q0.125 -0.171875 0.140625 -0.65625l0.34375 0z" fill-rule="nonzero"></path></g></svg>

